<mxfile host="app.diagrams.net" modified="2024-06-25T03:36:28.191Z" agent="Mozilla/5.0 (Windows NT 10.0; Win64; x64) AppleWebKit/537.36 (KHTML, like Gecko) Chrome/126.0.0.0 Safari/537.36" etag="g_QskssDDxDpoaEZ_ejZ" version="24.6.2" type="device">
  <diagram name="프로젝트_논리적설계의 복사본" id="M9wVw1_kFbU_0NLu4nRx">
    <mxGraphModel dx="3590" dy="2087" grid="0" gridSize="10" guides="1" tooltips="1" connect="1" arrows="1" fold="1" page="0" pageScale="1" pageWidth="827" pageHeight="1169" math="0" shadow="0">
      <root>
        <mxCell id="MdItLQ0MTu5GTJjjdZmf-0" />
        <mxCell id="MdItLQ0MTu5GTJjjdZmf-1" parent="MdItLQ0MTu5GTJjjdZmf-0" />
        <mxCell id="MdItLQ0MTu5GTJjjdZmf-4" value="" style="shape=table;startSize=0;container=1;collapsible=0;childLayout=tableLayout;" parent="MdItLQ0MTu5GTJjjdZmf-1" vertex="1">
          <mxGeometry x="-725" y="-12" width="882" height="71" as="geometry" />
        </mxCell>
        <mxCell id="MdItLQ0MTu5GTJjjdZmf-5" value="" style="shape=tableRow;horizontal=0;startSize=0;swimlaneHead=0;swimlaneBody=0;strokeColor=inherit;top=0;left=0;bottom=0;right=0;collapsible=0;dropTarget=0;fillColor=none;points=[[0,0.5],[1,0.5]];portConstraint=eastwest;" parent="MdItLQ0MTu5GTJjjdZmf-4" vertex="1">
          <mxGeometry width="882" height="71" as="geometry" />
        </mxCell>
        <mxCell id="MdItLQ0MTu5GTJjjdZmf-6" value="상품&lt;span style=&quot;white-space: pre;&quot;&gt;&#x9;&lt;/span&gt;" style="shape=partialRectangle;html=1;whiteSpace=wrap;connectable=0;strokeColor=#82b366;overflow=hidden;fillColor=#d5e8d4;top=0;left=0;bottom=0;right=0;pointerEvents=1;" parent="MdItLQ0MTu5GTJjjdZmf-5" vertex="1">
          <mxGeometry width="68" height="71" as="geometry">
            <mxRectangle width="68" height="71" as="alternateBounds" />
          </mxGeometry>
        </mxCell>
        <mxCell id="MdItLQ0MTu5GTJjjdZmf-7" value="상품번호" style="shape=partialRectangle;html=1;whiteSpace=wrap;connectable=0;strokeColor=#6c8ebf;overflow=hidden;fillColor=#dae8fc;top=0;left=0;bottom=0;right=0;pointerEvents=1;" parent="MdItLQ0MTu5GTJjjdZmf-5" vertex="1">
          <mxGeometry x="68" width="68" height="71" as="geometry">
            <mxRectangle width="68" height="71" as="alternateBounds" />
          </mxGeometry>
        </mxCell>
        <mxCell id="MdItLQ0MTu5GTJjjdZmf-8" value="상품이름" style="shape=partialRectangle;html=1;whiteSpace=wrap;connectable=0;strokeColor=inherit;overflow=hidden;fillColor=none;top=0;left=0;bottom=0;right=0;pointerEvents=1;" parent="MdItLQ0MTu5GTJjjdZmf-5" vertex="1">
          <mxGeometry x="136" width="68" height="71" as="geometry">
            <mxRectangle width="68" height="71" as="alternateBounds" />
          </mxGeometry>
        </mxCell>
        <mxCell id="MdItLQ0MTu5GTJjjdZmf-10" value="가격" style="shape=partialRectangle;html=1;whiteSpace=wrap;connectable=0;strokeColor=inherit;overflow=hidden;fillColor=none;top=0;left=0;bottom=0;right=0;pointerEvents=1;" parent="MdItLQ0MTu5GTJjjdZmf-5" vertex="1">
          <mxGeometry x="204" width="66" height="71" as="geometry">
            <mxRectangle width="66" height="71" as="alternateBounds" />
          </mxGeometry>
        </mxCell>
        <mxCell id="MdItLQ0MTu5GTJjjdZmf-11" value="수량" style="shape=partialRectangle;html=1;whiteSpace=wrap;connectable=0;strokeColor=inherit;overflow=hidden;fillColor=none;top=0;left=0;bottom=0;right=0;pointerEvents=1;" parent="MdItLQ0MTu5GTJjjdZmf-5" vertex="1">
          <mxGeometry x="270" width="69" height="71" as="geometry">
            <mxRectangle width="69" height="71" as="alternateBounds" />
          </mxGeometry>
        </mxCell>
        <mxCell id="W09ROAfbWl7zPPFezjd7-24" value="등록일자" style="shape=partialRectangle;html=1;whiteSpace=wrap;connectable=0;strokeColor=inherit;overflow=hidden;fillColor=none;top=0;left=0;bottom=0;right=0;pointerEvents=1;" parent="MdItLQ0MTu5GTJjjdZmf-5" vertex="1">
          <mxGeometry x="339" width="69" height="71" as="geometry">
            <mxRectangle width="69" height="71" as="alternateBounds" />
          </mxGeometry>
        </mxCell>
        <mxCell id="MdItLQ0MTu5GTJjjdZmf-12" value="배너이미지" style="shape=partialRectangle;html=1;whiteSpace=wrap;connectable=0;strokeColor=inherit;overflow=hidden;fillColor=none;top=0;left=0;bottom=0;right=0;pointerEvents=1;" parent="MdItLQ0MTu5GTJjjdZmf-5" vertex="1">
          <mxGeometry x="408" width="66" height="71" as="geometry">
            <mxRectangle width="66" height="71" as="alternateBounds" />
          </mxGeometry>
        </mxCell>
        <mxCell id="3LALxGLTyQkvRyAbyKmE-10" value="위시리스트수" style="shape=partialRectangle;html=1;whiteSpace=wrap;connectable=0;strokeColor=inherit;overflow=hidden;fillColor=none;top=0;left=0;bottom=0;right=0;pointerEvents=1;" parent="MdItLQ0MTu5GTJjjdZmf-5" vertex="1">
          <mxGeometry x="474" width="67" height="71" as="geometry">
            <mxRectangle width="67" height="71" as="alternateBounds" />
          </mxGeometry>
        </mxCell>
        <mxCell id="3LALxGLTyQkvRyAbyKmE-9" value="판매수" style="shape=partialRectangle;html=1;whiteSpace=wrap;connectable=0;strokeColor=inherit;overflow=hidden;fillColor=none;top=0;left=0;bottom=0;right=0;pointerEvents=1;" parent="MdItLQ0MTu5GTJjjdZmf-5" vertex="1">
          <mxGeometry x="541" width="69" height="71" as="geometry">
            <mxRectangle width="69" height="71" as="alternateBounds" />
          </mxGeometry>
        </mxCell>
        <mxCell id="3LALxGLTyQkvRyAbyKmE-8" value="조회수" style="shape=partialRectangle;html=1;whiteSpace=wrap;connectable=0;strokeColor=inherit;overflow=hidden;fillColor=none;top=0;left=0;bottom=0;right=0;pointerEvents=1;" parent="MdItLQ0MTu5GTJjjdZmf-5" vertex="1">
          <mxGeometry x="610" width="66" height="71" as="geometry">
            <mxRectangle width="66" height="71" as="alternateBounds" />
          </mxGeometry>
        </mxCell>
        <mxCell id="MdItLQ0MTu5GTJjjdZmf-13" value="판매자&lt;div&gt;이름&lt;/div&gt;" style="shape=partialRectangle;html=1;whiteSpace=wrap;connectable=0;strokeColor=#d79b00;overflow=hidden;fillColor=none;top=0;left=0;bottom=0;right=0;pointerEvents=1;" parent="MdItLQ0MTu5GTJjjdZmf-5" vertex="1">
          <mxGeometry x="676" width="70" height="71" as="geometry">
            <mxRectangle width="70" height="71" as="alternateBounds" />
          </mxGeometry>
        </mxCell>
        <mxCell id="MdItLQ0MTu5GTJjjdZmf-14" value="판매자&lt;div&gt;번호&lt;/div&gt;" style="shape=partialRectangle;html=1;whiteSpace=wrap;connectable=0;strokeColor=#d79b00;overflow=hidden;fillColor=#ffe6cc;top=0;left=0;bottom=0;right=0;pointerEvents=1;" parent="MdItLQ0MTu5GTJjjdZmf-5" vertex="1">
          <mxGeometry x="746" width="68" height="71" as="geometry">
            <mxRectangle width="68" height="71" as="alternateBounds" />
          </mxGeometry>
        </mxCell>
        <mxCell id="W09ROAfbWl7zPPFezjd7-37" value="카테고리" style="shape=partialRectangle;html=1;whiteSpace=wrap;connectable=0;strokeColor=#000000;overflow=hidden;fillColor=#ffe6cc;top=0;left=0;bottom=0;right=0;pointerEvents=1;perimeterSpacing=1;" parent="MdItLQ0MTu5GTJjjdZmf-5" vertex="1">
          <mxGeometry x="814" width="68" height="71" as="geometry">
            <mxRectangle width="68" height="71" as="alternateBounds" />
          </mxGeometry>
        </mxCell>
        <mxCell id="MdItLQ0MTu5GTJjjdZmf-15" value="&lt;font style=&quot;font-size: 25px;&quot;&gt;기본키&lt;/font&gt;" style="rounded=0;whiteSpace=wrap;html=1;fillColor=#dae8fc;strokeColor=#6c8ebf;" parent="MdItLQ0MTu5GTJjjdZmf-1" vertex="1">
          <mxGeometry x="-905" y="-423" width="108" height="39" as="geometry" />
        </mxCell>
        <mxCell id="MdItLQ0MTu5GTJjjdZmf-16" value="&lt;font style=&quot;font-size: 25px;&quot;&gt;외래키&lt;/font&gt;" style="rounded=0;whiteSpace=wrap;html=1;fillColor=#ffe6cc;strokeColor=#d79b00;" parent="MdItLQ0MTu5GTJjjdZmf-1" vertex="1">
          <mxGeometry x="-905" y="-370" width="107" height="37" as="geometry" />
        </mxCell>
        <mxCell id="MdItLQ0MTu5GTJjjdZmf-17" value="" style="shape=table;startSize=0;container=1;collapsible=0;childLayout=tableLayout;" parent="MdItLQ0MTu5GTJjjdZmf-1" vertex="1">
          <mxGeometry x="-731" y="98" width="228" height="77" as="geometry" />
        </mxCell>
        <mxCell id="MdItLQ0MTu5GTJjjdZmf-18" value="" style="shape=tableRow;horizontal=0;startSize=0;swimlaneHead=0;swimlaneBody=0;strokeColor=inherit;top=0;left=0;bottom=0;right=0;collapsible=0;dropTarget=0;fillColor=none;points=[[0,0.5],[1,0.5]];portConstraint=eastwest;" parent="MdItLQ0MTu5GTJjjdZmf-17" vertex="1">
          <mxGeometry width="228" height="77" as="geometry" />
        </mxCell>
        <mxCell id="MdItLQ0MTu5GTJjjdZmf-19" value="상품상세" style="shape=partialRectangle;html=1;whiteSpace=wrap;connectable=0;strokeColor=#82b366;overflow=hidden;fillColor=#d5e8d4;top=0;left=0;bottom=0;right=0;pointerEvents=1;" parent="MdItLQ0MTu5GTJjjdZmf-18" vertex="1">
          <mxGeometry width="76" height="77" as="geometry">
            <mxRectangle width="76" height="77" as="alternateBounds" />
          </mxGeometry>
        </mxCell>
        <mxCell id="MdItLQ0MTu5GTJjjdZmf-20" value="상품번호" style="shape=partialRectangle;html=1;whiteSpace=wrap;connectable=0;strokeColor=#d79b00;overflow=hidden;fillColor=#ffe6cc;top=0;left=0;bottom=0;right=0;pointerEvents=1;" parent="MdItLQ0MTu5GTJjjdZmf-18" vertex="1">
          <mxGeometry x="76" width="76" height="77" as="geometry">
            <mxRectangle width="76" height="77" as="alternateBounds" />
          </mxGeometry>
        </mxCell>
        <mxCell id="MdItLQ0MTu5GTJjjdZmf-21" value="설명이미지" style="shape=partialRectangle;html=1;whiteSpace=wrap;connectable=0;strokeColor=inherit;overflow=hidden;fillColor=none;top=0;left=0;bottom=0;right=0;pointerEvents=1;" parent="MdItLQ0MTu5GTJjjdZmf-18" vertex="1">
          <mxGeometry x="152" width="76" height="77" as="geometry">
            <mxRectangle width="76" height="77" as="alternateBounds" />
          </mxGeometry>
        </mxCell>
        <mxCell id="MdItLQ0MTu5GTJjjdZmf-23" value="&lt;span style=&quot;font-size: 25px;&quot;&gt;릴레이션&lt;/span&gt;" style="rounded=0;whiteSpace=wrap;html=1;fillColor=#d5e8d4;strokeColor=#82b366;" parent="MdItLQ0MTu5GTJjjdZmf-1" vertex="1">
          <mxGeometry x="-905" y="-480" width="107" height="44" as="geometry" />
        </mxCell>
        <mxCell id="MdItLQ0MTu5GTJjjdZmf-24" value="" style="shape=table;startSize=0;container=1;collapsible=0;childLayout=tableLayout;" parent="MdItLQ0MTu5GTJjjdZmf-1" vertex="1">
          <mxGeometry x="-735" y="-317.5" width="1130" height="70" as="geometry" />
        </mxCell>
        <mxCell id="MdItLQ0MTu5GTJjjdZmf-25" value="" style="shape=tableRow;horizontal=0;startSize=0;swimlaneHead=0;swimlaneBody=0;strokeColor=inherit;top=0;left=0;bottom=0;right=0;collapsible=0;dropTarget=0;fillColor=none;points=[[0,0.5],[1,0.5]];portConstraint=eastwest;" parent="MdItLQ0MTu5GTJjjdZmf-24" vertex="1">
          <mxGeometry width="1130" height="70" as="geometry" />
        </mxCell>
        <mxCell id="MdItLQ0MTu5GTJjjdZmf-26" value="회원" style="shape=partialRectangle;html=1;whiteSpace=wrap;connectable=0;strokeColor=#82b366;overflow=hidden;fillColor=#d5e8d4;top=0;left=0;bottom=0;right=0;pointerEvents=1;" parent="MdItLQ0MTu5GTJjjdZmf-25" vertex="1">
          <mxGeometry width="71" height="70" as="geometry">
            <mxRectangle width="71" height="70" as="alternateBounds" />
          </mxGeometry>
        </mxCell>
        <mxCell id="MdItLQ0MTu5GTJjjdZmf-27" value="회원번호" style="shape=partialRectangle;html=1;whiteSpace=wrap;connectable=0;strokeColor=#6c8ebf;overflow=hidden;fillColor=#dae8fc;top=0;left=0;bottom=0;right=0;pointerEvents=1;" parent="MdItLQ0MTu5GTJjjdZmf-25" vertex="1">
          <mxGeometry x="71" width="69" height="70" as="geometry">
            <mxRectangle width="69" height="70" as="alternateBounds" />
          </mxGeometry>
        </mxCell>
        <mxCell id="MdItLQ0MTu5GTJjjdZmf-28" value="ID" style="shape=partialRectangle;html=1;whiteSpace=wrap;connectable=0;strokeColor=#b85450;overflow=hidden;fillColor=#f8cecc;top=0;left=0;bottom=0;right=0;pointerEvents=1;" parent="MdItLQ0MTu5GTJjjdZmf-25" vertex="1">
          <mxGeometry x="140" width="72" height="70" as="geometry">
            <mxRectangle width="72" height="70" as="alternateBounds" />
          </mxGeometry>
        </mxCell>
        <mxCell id="MdItLQ0MTu5GTJjjdZmf-29" value="PW" style="shape=partialRectangle;html=1;whiteSpace=wrap;connectable=0;strokeColor=inherit;overflow=hidden;fillColor=none;top=0;left=0;bottom=0;right=0;pointerEvents=1;" parent="MdItLQ0MTu5GTJjjdZmf-25" vertex="1">
          <mxGeometry x="212" width="72" height="70" as="geometry">
            <mxRectangle width="72" height="70" as="alternateBounds" />
          </mxGeometry>
        </mxCell>
        <mxCell id="98sn8pC3-tnEW5wwYipj-7" value="이메일" style="shape=partialRectangle;html=1;whiteSpace=wrap;connectable=0;strokeColor=inherit;overflow=hidden;fillColor=none;top=0;left=0;bottom=0;right=0;pointerEvents=1;" parent="MdItLQ0MTu5GTJjjdZmf-25" vertex="1">
          <mxGeometry x="284" width="70" height="70" as="geometry">
            <mxRectangle width="70" height="70" as="alternateBounds" />
          </mxGeometry>
        </mxCell>
        <mxCell id="W09ROAfbWl7zPPFezjd7-21" value="이름" style="shape=partialRectangle;html=1;whiteSpace=wrap;connectable=0;strokeColor=inherit;overflow=hidden;fillColor=none;top=0;left=0;bottom=0;right=0;pointerEvents=1;" parent="MdItLQ0MTu5GTJjjdZmf-25" vertex="1">
          <mxGeometry x="354" width="71" height="70" as="geometry">
            <mxRectangle width="71" height="70" as="alternateBounds" />
          </mxGeometry>
        </mxCell>
        <mxCell id="MdItLQ0MTu5GTJjjdZmf-30" value="닉네임" style="shape=partialRectangle;html=1;whiteSpace=wrap;connectable=0;strokeColor=inherit;overflow=hidden;fillColor=none;top=0;left=0;bottom=0;right=0;pointerEvents=1;" parent="MdItLQ0MTu5GTJjjdZmf-25" vertex="1">
          <mxGeometry x="425" width="71" height="70" as="geometry">
            <mxRectangle width="71" height="70" as="alternateBounds" />
          </mxGeometry>
        </mxCell>
        <mxCell id="98sn8pC3-tnEW5wwYipj-1" value="생년월일" style="shape=partialRectangle;html=1;whiteSpace=wrap;connectable=0;strokeColor=inherit;overflow=hidden;fillColor=none;top=0;left=0;bottom=0;right=0;pointerEvents=1;" parent="MdItLQ0MTu5GTJjjdZmf-25" vertex="1">
          <mxGeometry x="496" width="70" height="70" as="geometry">
            <mxRectangle width="70" height="70" as="alternateBounds" />
          </mxGeometry>
        </mxCell>
        <mxCell id="98sn8pC3-tnEW5wwYipj-2" value="회원등급" style="shape=partialRectangle;html=1;whiteSpace=wrap;connectable=0;strokeColor=inherit;overflow=hidden;fillColor=none;top=0;left=0;bottom=0;right=0;pointerEvents=1;" parent="MdItLQ0MTu5GTJjjdZmf-25" vertex="1">
          <mxGeometry x="566" width="71" height="70" as="geometry">
            <mxRectangle width="71" height="70" as="alternateBounds" />
          </mxGeometry>
        </mxCell>
        <mxCell id="98sn8pC3-tnEW5wwYipj-3" value="주소" style="shape=partialRectangle;html=1;whiteSpace=wrap;connectable=0;strokeColor=inherit;overflow=hidden;fillColor=none;top=0;left=0;bottom=0;right=0;pointerEvents=1;" parent="MdItLQ0MTu5GTJjjdZmf-25" vertex="1">
          <mxGeometry x="637" width="71" height="70" as="geometry">
            <mxRectangle width="71" height="70" as="alternateBounds" />
          </mxGeometry>
        </mxCell>
        <mxCell id="3LALxGLTyQkvRyAbyKmE-51" value="상세주소" style="shape=partialRectangle;html=1;whiteSpace=wrap;connectable=0;strokeColor=inherit;overflow=hidden;fillColor=none;top=0;left=0;bottom=0;right=0;pointerEvents=1;" parent="MdItLQ0MTu5GTJjjdZmf-25" vertex="1">
          <mxGeometry x="708" width="71" height="70" as="geometry">
            <mxRectangle width="71" height="70" as="alternateBounds" />
          </mxGeometry>
        </mxCell>
        <mxCell id="3LALxGLTyQkvRyAbyKmE-50" value="우편번호" style="shape=partialRectangle;html=1;whiteSpace=wrap;connectable=0;strokeColor=inherit;overflow=hidden;fillColor=none;top=0;left=0;bottom=0;right=0;pointerEvents=1;" parent="MdItLQ0MTu5GTJjjdZmf-25" vertex="1">
          <mxGeometry x="779" width="71" height="70" as="geometry">
            <mxRectangle width="71" height="70" as="alternateBounds" />
          </mxGeometry>
        </mxCell>
        <mxCell id="98sn8pC3-tnEW5wwYipj-4" value="전화번호" style="shape=partialRectangle;html=1;whiteSpace=wrap;connectable=0;strokeColor=inherit;overflow=hidden;fillColor=none;top=0;left=0;bottom=0;right=0;pointerEvents=1;" parent="MdItLQ0MTu5GTJjjdZmf-25" vertex="1">
          <mxGeometry x="850" width="70" height="70" as="geometry">
            <mxRectangle width="70" height="70" as="alternateBounds" />
          </mxGeometry>
        </mxCell>
        <mxCell id="3LALxGLTyQkvRyAbyKmE-52" value="가입일자" style="shape=partialRectangle;html=1;whiteSpace=wrap;connectable=0;strokeColor=inherit;overflow=hidden;fillColor=none;top=0;left=0;bottom=0;right=0;pointerEvents=1;" parent="MdItLQ0MTu5GTJjjdZmf-25" vertex="1">
          <mxGeometry x="920" width="70" height="70" as="geometry">
            <mxRectangle width="70" height="70" as="alternateBounds" />
          </mxGeometry>
        </mxCell>
        <mxCell id="MV0_2EDPQuUeOI38a0HI-1" value="포인트" style="shape=partialRectangle;html=1;whiteSpace=wrap;connectable=0;strokeColor=inherit;overflow=hidden;fillColor=none;top=0;left=0;bottom=0;right=0;pointerEvents=1;" parent="MdItLQ0MTu5GTJjjdZmf-25" vertex="1">
          <mxGeometry x="990" width="70" height="70" as="geometry">
            <mxRectangle width="70" height="70" as="alternateBounds" />
          </mxGeometry>
        </mxCell>
        <mxCell id="W09ROAfbWl7zPPFezjd7-22" value="탈퇴일자" style="shape=partialRectangle;html=1;whiteSpace=wrap;connectable=0;strokeColor=inherit;overflow=hidden;fillColor=none;top=0;left=0;bottom=0;right=0;pointerEvents=1;" parent="MdItLQ0MTu5GTJjjdZmf-25" vertex="1">
          <mxGeometry x="1060" width="70" height="70" as="geometry">
            <mxRectangle width="70" height="70" as="alternateBounds" />
          </mxGeometry>
        </mxCell>
        <mxCell id="MdItLQ0MTu5GTJjjdZmf-31" value="&lt;span style=&quot;font-size: 25px;&quot;&gt;다중 기본키(테두리)&lt;/span&gt;" style="rounded=0;whiteSpace=wrap;html=1;strokeWidth=2;strokeColor=#0011ff;" parent="MdItLQ0MTu5GTJjjdZmf-1" vertex="1">
          <mxGeometry x="-905" y="-276" width="151" height="60" as="geometry" />
        </mxCell>
        <mxCell id="MdItLQ0MTu5GTJjjdZmf-32" value="유일값" style="rounded=0;whiteSpace=wrap;html=1;fillColor=#f8cecc;strokeColor=#b85450;fontSize=25;" parent="MdItLQ0MTu5GTJjjdZmf-1" vertex="1">
          <mxGeometry x="-905" y="-323" width="107" height="37" as="geometry" />
        </mxCell>
        <mxCell id="MdItLQ0MTu5GTJjjdZmf-68" value="" style="edgeStyle=elbowEdgeStyle;elbow=vertical;endArrow=classic;html=1;curved=0;rounded=0;endSize=8;startSize=8;fontSize=12;entryX=0.076;entryY=0.996;entryDx=0;entryDy=0;entryPerimeter=0;exitX=0.235;exitY=-0.005;exitDx=0;exitDy=0;exitPerimeter=0;" parent="MdItLQ0MTu5GTJjjdZmf-1" source="MdItLQ0MTu5GTJjjdZmf-56" target="MdItLQ0MTu5GTJjjdZmf-25" edge="1">
          <mxGeometry width="50" height="50" relative="1" as="geometry">
            <mxPoint x="-717" y="-163" as="sourcePoint" />
            <mxPoint x="-113" y="-419" as="targetPoint" />
            <Array as="points">
              <mxPoint x="-613" y="-228" />
            </Array>
          </mxGeometry>
        </mxCell>
        <mxCell id="MdItLQ0MTu5GTJjjdZmf-69" value="" style="shape=table;startSize=0;container=1;collapsible=0;childLayout=tableLayout;" parent="MdItLQ0MTu5GTJjjdZmf-1" vertex="1">
          <mxGeometry x="-727" y="-122" width="632" height="71" as="geometry" />
        </mxCell>
        <mxCell id="MdItLQ0MTu5GTJjjdZmf-70" value="" style="shape=tableRow;horizontal=0;startSize=0;swimlaneHead=0;swimlaneBody=0;strokeColor=inherit;top=0;left=0;bottom=0;right=0;collapsible=0;dropTarget=0;fillColor=none;points=[[0,0.5],[1,0.5]];portConstraint=eastwest;" parent="MdItLQ0MTu5GTJjjdZmf-69" vertex="1">
          <mxGeometry width="632" height="71" as="geometry" />
        </mxCell>
        <mxCell id="MdItLQ0MTu5GTJjjdZmf-71" value="구매상세" style="shape=partialRectangle;html=1;whiteSpace=wrap;connectable=0;strokeColor=#82b366;overflow=hidden;fillColor=#d5e8d4;top=0;left=0;bottom=0;right=0;pointerEvents=1;" parent="MdItLQ0MTu5GTJjjdZmf-70" vertex="1">
          <mxGeometry width="63" height="71" as="geometry">
            <mxRectangle width="63" height="71" as="alternateBounds" />
          </mxGeometry>
        </mxCell>
        <mxCell id="MdItLQ0MTu5GTJjjdZmf-72" value="주문번호" style="shape=partialRectangle;html=1;whiteSpace=wrap;connectable=0;strokeColor=#6c8ebf;overflow=hidden;fillColor=#dae8fc;top=0;left=0;bottom=0;right=0;pointerEvents=1;" parent="MdItLQ0MTu5GTJjjdZmf-70" vertex="1">
          <mxGeometry x="63" width="64" height="71" as="geometry">
            <mxRectangle width="64" height="71" as="alternateBounds" />
          </mxGeometry>
        </mxCell>
        <mxCell id="MdItLQ0MTu5GTJjjdZmf-73" value="구매번호" style="shape=partialRectangle;html=1;whiteSpace=wrap;connectable=0;strokeColor=#d79b00;overflow=hidden;fillColor=#ffe6cc;top=0;left=0;bottom=0;right=0;pointerEvents=1;" parent="MdItLQ0MTu5GTJjjdZmf-70" vertex="1">
          <mxGeometry x="127" width="63" height="71" as="geometry">
            <mxRectangle width="63" height="71" as="alternateBounds" />
          </mxGeometry>
        </mxCell>
        <mxCell id="MdItLQ0MTu5GTJjjdZmf-74" value="상품번호" style="shape=partialRectangle;html=1;whiteSpace=wrap;connectable=0;strokeColor=#d79b00;overflow=hidden;fillColor=#ffe6cc;top=0;left=0;bottom=0;right=0;pointerEvents=1;" parent="MdItLQ0MTu5GTJjjdZmf-70" vertex="1">
          <mxGeometry x="190" width="64" height="71" as="geometry">
            <mxRectangle width="64" height="71" as="alternateBounds" />
          </mxGeometry>
        </mxCell>
        <mxCell id="MdItLQ0MTu5GTJjjdZmf-75" value="수량" style="shape=partialRectangle;html=1;whiteSpace=wrap;connectable=0;strokeColor=inherit;overflow=hidden;fillColor=none;top=0;left=0;bottom=0;right=0;pointerEvents=1;" parent="MdItLQ0MTu5GTJjjdZmf-70" vertex="1">
          <mxGeometry x="254" width="63" height="71" as="geometry">
            <mxRectangle width="63" height="71" as="alternateBounds" />
          </mxGeometry>
        </mxCell>
        <mxCell id="MdItLQ0MTu5GTJjjdZmf-76" value="할인액" style="shape=partialRectangle;html=1;whiteSpace=wrap;connectable=0;strokeColor=inherit;overflow=hidden;fillColor=none;top=0;left=0;bottom=0;right=0;pointerEvents=1;" parent="MdItLQ0MTu5GTJjjdZmf-70" vertex="1">
          <mxGeometry x="317" width="63" height="71" as="geometry">
            <mxRectangle width="63" height="71" as="alternateBounds" />
          </mxGeometry>
        </mxCell>
        <mxCell id="MdItLQ0MTu5GTJjjdZmf-77" value="사용쿠폰" style="shape=partialRectangle;html=1;whiteSpace=wrap;connectable=0;overflow=hidden;top=0;left=0;bottom=0;right=0;pointerEvents=1;fillColor=none;" parent="MdItLQ0MTu5GTJjjdZmf-70" vertex="1">
          <mxGeometry x="380" width="63" height="71" as="geometry">
            <mxRectangle width="63" height="71" as="alternateBounds" />
          </mxGeometry>
        </mxCell>
        <mxCell id="3LALxGLTyQkvRyAbyKmE-3" value="결제액" style="shape=partialRectangle;html=1;whiteSpace=wrap;connectable=0;overflow=hidden;top=0;left=0;bottom=0;right=0;pointerEvents=1;fillColor=none;" parent="MdItLQ0MTu5GTJjjdZmf-70" vertex="1">
          <mxGeometry x="443" width="63" height="71" as="geometry">
            <mxRectangle width="63" height="71" as="alternateBounds" />
          </mxGeometry>
        </mxCell>
        <mxCell id="3LALxGLTyQkvRyAbyKmE-4" value="금액" style="shape=partialRectangle;html=1;whiteSpace=wrap;connectable=0;overflow=hidden;top=0;left=0;bottom=0;right=0;pointerEvents=1;fillColor=none;" parent="MdItLQ0MTu5GTJjjdZmf-70" vertex="1">
          <mxGeometry x="506" width="63" height="71" as="geometry">
            <mxRectangle width="63" height="71" as="alternateBounds" />
          </mxGeometry>
        </mxCell>
        <mxCell id="3LALxGLTyQkvRyAbyKmE-42" value="상태" style="shape=partialRectangle;html=1;whiteSpace=wrap;connectable=0;overflow=hidden;top=0;left=0;bottom=0;right=0;pointerEvents=1;fillColor=none;" parent="MdItLQ0MTu5GTJjjdZmf-70" vertex="1">
          <mxGeometry x="569" width="63" height="71" as="geometry">
            <mxRectangle width="63" height="71" as="alternateBounds" />
          </mxGeometry>
        </mxCell>
        <mxCell id="MdItLQ0MTu5GTJjjdZmf-78" value="" style="edgeStyle=elbowEdgeStyle;elbow=vertical;endArrow=classic;html=1;curved=0;rounded=0;endSize=8;startSize=8;fontSize=12;entryX=0.138;entryY=0.997;entryDx=0;entryDy=0;entryPerimeter=0;exitX=0.248;exitY=0.002;exitDx=0;exitDy=0;exitPerimeter=0;" parent="MdItLQ0MTu5GTJjjdZmf-1" source="MdItLQ0MTu5GTJjjdZmf-70" target="MdItLQ0MTu5GTJjjdZmf-56" edge="1">
          <mxGeometry width="50" height="50" relative="1" as="geometry">
            <mxPoint x="-347" y="-265" as="sourcePoint" />
            <mxPoint x="-298" y="-289" as="targetPoint" />
            <Array as="points">
              <mxPoint x="-605" y="-133" />
            </Array>
          </mxGeometry>
        </mxCell>
        <mxCell id="MdItLQ0MTu5GTJjjdZmf-96" value="" style="edgeStyle=elbowEdgeStyle;elbow=vertical;endArrow=classic;html=1;curved=0;rounded=0;endSize=8;startSize=8;fontSize=12;exitX=0.346;exitY=0.003;exitDx=0;exitDy=0;exitPerimeter=0;entryX=0.113;entryY=1.004;entryDx=0;entryDy=0;entryPerimeter=0;" parent="MdItLQ0MTu5GTJjjdZmf-1" source="MdItLQ0MTu5GTJjjdZmf-88" target="MdItLQ0MTu5GTJjjdZmf-24" edge="1">
          <mxGeometry width="50" height="50" relative="1" as="geometry">
            <mxPoint x="141" y="-224" as="sourcePoint" />
            <mxPoint x="-36" y="-306" as="targetPoint" />
            <Array as="points">
              <mxPoint x="-246" y="-235" />
              <mxPoint x="268" y="-279" />
            </Array>
          </mxGeometry>
        </mxCell>
        <mxCell id="MdItLQ0MTu5GTJjjdZmf-111" value="" style="shape=table;startSize=0;container=1;collapsible=0;childLayout=tableLayout;" parent="MdItLQ0MTu5GTJjjdZmf-1" vertex="1">
          <mxGeometry x="138" y="-415" width="266" height="73" as="geometry" />
        </mxCell>
        <mxCell id="MdItLQ0MTu5GTJjjdZmf-112" value="" style="shape=tableRow;horizontal=0;startSize=0;swimlaneHead=0;swimlaneBody=0;strokeColor=inherit;top=0;left=0;bottom=0;right=0;collapsible=0;dropTarget=0;fillColor=none;points=[[0,0.5],[1,0.5]];portConstraint=eastwest;" parent="MdItLQ0MTu5GTJjjdZmf-111" vertex="1">
          <mxGeometry width="266" height="73" as="geometry" />
        </mxCell>
        <mxCell id="MdItLQ0MTu5GTJjjdZmf-113" value="게시판&lt;div&gt;이미지&lt;/div&gt;" style="shape=partialRectangle;html=1;whiteSpace=wrap;connectable=0;strokeColor=#82b366;overflow=hidden;fillColor=#d5e8d4;top=0;left=0;bottom=0;right=0;pointerEvents=1;" parent="MdItLQ0MTu5GTJjjdZmf-112" vertex="1">
          <mxGeometry width="66" height="73" as="geometry">
            <mxRectangle width="66" height="73" as="alternateBounds" />
          </mxGeometry>
        </mxCell>
        <mxCell id="MV0_2EDPQuUeOI38a0HI-2" value="이미지 번호" style="shape=partialRectangle;html=1;whiteSpace=wrap;connectable=0;strokeColor=#6c8ebf;overflow=hidden;fillColor=#dae8fc;top=0;left=0;bottom=0;right=0;pointerEvents=1;" parent="MdItLQ0MTu5GTJjjdZmf-112" vertex="1">
          <mxGeometry x="66" width="67" height="73" as="geometry">
            <mxRectangle width="67" height="73" as="alternateBounds" />
          </mxGeometry>
        </mxCell>
        <mxCell id="MdItLQ0MTu5GTJjjdZmf-114" value="글번호" style="shape=partialRectangle;html=1;whiteSpace=wrap;connectable=0;strokeColor=#d79b00;overflow=hidden;fillColor=#ffe6cc;top=0;left=0;bottom=0;right=0;pointerEvents=1;" parent="MdItLQ0MTu5GTJjjdZmf-112" vertex="1">
          <mxGeometry x="133" width="67" height="73" as="geometry">
            <mxRectangle width="67" height="73" as="alternateBounds" />
          </mxGeometry>
        </mxCell>
        <mxCell id="MdItLQ0MTu5GTJjjdZmf-115" value="이미지" style="shape=partialRectangle;html=1;whiteSpace=wrap;connectable=0;strokeColor=inherit;overflow=hidden;fillColor=none;top=0;left=0;bottom=0;right=0;pointerEvents=1;" parent="MdItLQ0MTu5GTJjjdZmf-112" vertex="1">
          <mxGeometry x="200" width="66" height="73" as="geometry">
            <mxRectangle width="66" height="73" as="alternateBounds" />
          </mxGeometry>
        </mxCell>
        <mxCell id="MdItLQ0MTu5GTJjjdZmf-166" value="" style="shape=table;startSize=0;container=1;collapsible=0;childLayout=tableLayout;" parent="MdItLQ0MTu5GTJjjdZmf-1" vertex="1">
          <mxGeometry x="-735" y="-510" width="698" height="71" as="geometry" />
        </mxCell>
        <mxCell id="MdItLQ0MTu5GTJjjdZmf-167" value="" style="shape=tableRow;horizontal=0;startSize=0;swimlaneHead=0;swimlaneBody=0;strokeColor=inherit;top=0;left=0;bottom=0;right=0;collapsible=0;dropTarget=0;fillColor=none;points=[[0,0.5],[1,0.5]];portConstraint=eastwest;" parent="MdItLQ0MTu5GTJjjdZmf-166" vertex="1">
          <mxGeometry width="698" height="71" as="geometry" />
        </mxCell>
        <mxCell id="MdItLQ0MTu5GTJjjdZmf-168" value="게시판&lt;div&gt;답글&lt;/div&gt;" style="shape=partialRectangle;html=1;whiteSpace=wrap;connectable=0;strokeColor=#82b366;overflow=hidden;fillColor=#d5e8d4;top=0;left=0;bottom=0;right=0;pointerEvents=1;" parent="MdItLQ0MTu5GTJjjdZmf-167" vertex="1">
          <mxGeometry width="63" height="71" as="geometry">
            <mxRectangle width="63" height="71" as="alternateBounds" />
          </mxGeometry>
        </mxCell>
        <mxCell id="MdItLQ0MTu5GTJjjdZmf-169" value="댓글번호" style="shape=partialRectangle;html=1;whiteSpace=wrap;connectable=0;strokeColor=#6c8ebf;overflow=hidden;fillColor=#dae8fc;top=0;left=0;bottom=0;right=0;pointerEvents=1;" parent="MdItLQ0MTu5GTJjjdZmf-167" vertex="1">
          <mxGeometry x="63" width="64" height="71" as="geometry">
            <mxRectangle width="64" height="71" as="alternateBounds" />
          </mxGeometry>
        </mxCell>
        <mxCell id="MdItLQ0MTu5GTJjjdZmf-170" value="글번호" style="shape=partialRectangle;html=1;whiteSpace=wrap;connectable=0;strokeColor=#d79b00;overflow=hidden;fillColor=#ffe6cc;top=0;left=0;bottom=0;right=0;pointerEvents=1;" parent="MdItLQ0MTu5GTJjjdZmf-167" vertex="1">
          <mxGeometry x="127" width="64" height="71" as="geometry">
            <mxRectangle width="64" height="71" as="alternateBounds" />
          </mxGeometry>
        </mxCell>
        <mxCell id="MdItLQ0MTu5GTJjjdZmf-171" value="작성자&lt;div&gt;(닉네임)&lt;/div&gt;" style="shape=partialRectangle;html=1;whiteSpace=wrap;connectable=0;strokeColor=#d79b00;overflow=hidden;fillColor=none;top=0;left=0;bottom=0;right=0;pointerEvents=1;" parent="MdItLQ0MTu5GTJjjdZmf-167" vertex="1">
          <mxGeometry x="191" width="64" height="71" as="geometry">
            <mxRectangle width="64" height="71" as="alternateBounds" />
          </mxGeometry>
        </mxCell>
        <mxCell id="MdItLQ0MTu5GTJjjdZmf-172" value="회원번호" style="shape=partialRectangle;html=1;whiteSpace=wrap;connectable=0;strokeColor=#d79b00;overflow=hidden;fillColor=none;top=0;left=0;bottom=0;right=0;pointerEvents=1;" parent="MdItLQ0MTu5GTJjjdZmf-167" vertex="1">
          <mxGeometry x="255" width="64" height="71" as="geometry">
            <mxRectangle width="64" height="71" as="alternateBounds" />
          </mxGeometry>
        </mxCell>
        <mxCell id="MdItLQ0MTu5GTJjjdZmf-173" value="내용" style="shape=partialRectangle;html=1;whiteSpace=wrap;connectable=0;strokeColor=#d79b00;overflow=hidden;fillColor=none;top=0;left=0;bottom=0;right=0;pointerEvents=1;" parent="MdItLQ0MTu5GTJjjdZmf-167" vertex="1">
          <mxGeometry x="319" width="63" height="71" as="geometry">
            <mxRectangle width="63" height="71" as="alternateBounds" />
          </mxGeometry>
        </mxCell>
        <mxCell id="MdItLQ0MTu5GTJjjdZmf-174" value="날짜" style="shape=partialRectangle;html=1;whiteSpace=wrap;connectable=0;overflow=hidden;top=0;left=0;bottom=0;right=0;pointerEvents=1;fillColor=none;" parent="MdItLQ0MTu5GTJjjdZmf-167" vertex="1">
          <mxGeometry x="382" width="64" height="71" as="geometry">
            <mxRectangle width="64" height="71" as="alternateBounds" />
          </mxGeometry>
        </mxCell>
        <mxCell id="MdItLQ0MTu5GTJjjdZmf-175" value="추천수" style="shape=partialRectangle;html=1;whiteSpace=wrap;connectable=0;strokeColor=inherit;overflow=hidden;fillColor=none;top=0;left=0;bottom=0;right=0;pointerEvents=1;" parent="MdItLQ0MTu5GTJjjdZmf-167" vertex="1">
          <mxGeometry x="446" width="63" height="71" as="geometry">
            <mxRectangle width="63" height="71" as="alternateBounds" />
          </mxGeometry>
        </mxCell>
        <mxCell id="MdItLQ0MTu5GTJjjdZmf-176" value="댓글&lt;div&gt;group&lt;/div&gt;" style="shape=partialRectangle;html=1;whiteSpace=wrap;connectable=0;strokeColor=inherit;overflow=hidden;fillColor=none;top=0;left=0;bottom=0;right=0;pointerEvents=1;" parent="MdItLQ0MTu5GTJjjdZmf-167" vertex="1">
          <mxGeometry x="509" width="63" height="71" as="geometry">
            <mxRectangle width="63" height="71" as="alternateBounds" />
          </mxGeometry>
        </mxCell>
        <mxCell id="MdItLQ0MTu5GTJjjdZmf-177" value="댓글&lt;div&gt;indent&lt;/div&gt;" style="shape=partialRectangle;html=1;whiteSpace=wrap;connectable=0;strokeColor=inherit;overflow=hidden;fillColor=none;top=0;left=0;bottom=0;right=0;pointerEvents=1;" parent="MdItLQ0MTu5GTJjjdZmf-167" vertex="1">
          <mxGeometry x="572" width="63" height="71" as="geometry">
            <mxRectangle width="63" height="71" as="alternateBounds" />
          </mxGeometry>
        </mxCell>
        <mxCell id="MdItLQ0MTu5GTJjjdZmf-178" value="댓글&lt;div&gt;step&lt;/div&gt;" style="shape=partialRectangle;html=1;whiteSpace=wrap;connectable=0;strokeColor=inherit;overflow=hidden;fillColor=none;top=0;left=0;bottom=0;right=0;pointerEvents=1;" parent="MdItLQ0MTu5GTJjjdZmf-167" vertex="1">
          <mxGeometry x="635" width="63" height="71" as="geometry">
            <mxRectangle width="63" height="71" as="alternateBounds" />
          </mxGeometry>
        </mxCell>
        <mxCell id="MdItLQ0MTu5GTJjjdZmf-55" value="" style="shape=table;startSize=0;container=1;collapsible=0;childLayout=tableLayout;" parent="MdItLQ0MTu5GTJjjdZmf-1" vertex="1">
          <mxGeometry x="-726" y="-220" width="631" height="71" as="geometry" />
        </mxCell>
        <mxCell id="MdItLQ0MTu5GTJjjdZmf-56" value="" style="shape=tableRow;horizontal=0;startSize=0;swimlaneHead=0;swimlaneBody=0;strokeColor=inherit;top=0;left=0;bottom=0;right=0;collapsible=0;dropTarget=0;fillColor=none;points=[[0,0.5],[1,0.5]];portConstraint=eastwest;" parent="MdItLQ0MTu5GTJjjdZmf-55" vertex="1">
          <mxGeometry width="631" height="71" as="geometry" />
        </mxCell>
        <mxCell id="MdItLQ0MTu5GTJjjdZmf-57" value="구매" style="shape=partialRectangle;html=1;whiteSpace=wrap;connectable=0;strokeColor=#82b366;overflow=hidden;fillColor=#d5e8d4;top=0;left=0;bottom=0;right=0;pointerEvents=1;" parent="MdItLQ0MTu5GTJjjdZmf-56" vertex="1">
          <mxGeometry width="63" height="71" as="geometry">
            <mxRectangle width="63" height="71" as="alternateBounds" />
          </mxGeometry>
        </mxCell>
        <mxCell id="MdItLQ0MTu5GTJjjdZmf-58" value="구매번호" style="shape=partialRectangle;html=1;whiteSpace=wrap;connectable=0;strokeColor=#6c8ebf;overflow=hidden;fillColor=#dae8fc;top=0;left=0;bottom=0;right=0;pointerEvents=1;" parent="MdItLQ0MTu5GTJjjdZmf-56" vertex="1">
          <mxGeometry x="63" width="64" height="71" as="geometry">
            <mxRectangle width="64" height="71" as="alternateBounds" />
          </mxGeometry>
        </mxCell>
        <mxCell id="MdItLQ0MTu5GTJjjdZmf-59" value="회원번호" style="shape=partialRectangle;html=1;whiteSpace=wrap;connectable=0;strokeColor=#d79b00;overflow=hidden;fillColor=#ffe6cc;top=0;left=0;bottom=0;right=0;pointerEvents=1;" parent="MdItLQ0MTu5GTJjjdZmf-56" vertex="1">
          <mxGeometry x="127" width="63" height="71" as="geometry">
            <mxRectangle width="63" height="71" as="alternateBounds" />
          </mxGeometry>
        </mxCell>
        <mxCell id="MdItLQ0MTu5GTJjjdZmf-61" value="총금액" style="shape=partialRectangle;html=1;whiteSpace=wrap;connectable=0;strokeColor=inherit;overflow=hidden;fillColor=none;top=0;left=0;bottom=0;right=0;pointerEvents=1;" parent="MdItLQ0MTu5GTJjjdZmf-56" vertex="1">
          <mxGeometry x="190" width="63" height="71" as="geometry">
            <mxRectangle width="63" height="71" as="alternateBounds" />
          </mxGeometry>
        </mxCell>
        <mxCell id="3LALxGLTyQkvRyAbyKmE-5" value="배송택배" style="shape=partialRectangle;html=1;whiteSpace=wrap;connectable=0;strokeColor=inherit;overflow=hidden;fillColor=none;top=0;left=0;bottom=0;right=0;pointerEvents=1;" parent="MdItLQ0MTu5GTJjjdZmf-56" vertex="1">
          <mxGeometry x="253" width="63" height="71" as="geometry">
            <mxRectangle width="63" height="71" as="alternateBounds" />
          </mxGeometry>
        </mxCell>
        <mxCell id="MdItLQ0MTu5GTJjjdZmf-62" value="할인액" style="shape=partialRectangle;html=1;whiteSpace=wrap;connectable=0;strokeColor=inherit;overflow=hidden;fillColor=none;top=0;left=0;bottom=0;right=0;pointerEvents=1;" parent="MdItLQ0MTu5GTJjjdZmf-56" vertex="1">
          <mxGeometry x="316" width="63" height="71" as="geometry">
            <mxRectangle width="63" height="71" as="alternateBounds" />
          </mxGeometry>
        </mxCell>
        <mxCell id="MdItLQ0MTu5GTJjjdZmf-63" value="결제액" style="shape=partialRectangle;html=1;whiteSpace=wrap;connectable=0;overflow=hidden;top=0;left=0;bottom=0;right=0;pointerEvents=1;fillColor=none;" parent="MdItLQ0MTu5GTJjjdZmf-56" vertex="1">
          <mxGeometry x="379" width="63" height="71" as="geometry">
            <mxRectangle width="63" height="71" as="alternateBounds" />
          </mxGeometry>
        </mxCell>
        <mxCell id="MdItLQ0MTu5GTJjjdZmf-64" value="결제일자" style="shape=partialRectangle;html=1;whiteSpace=wrap;connectable=0;overflow=hidden;top=0;left=0;bottom=0;right=0;pointerEvents=1;fillColor=none;" parent="MdItLQ0MTu5GTJjjdZmf-56" vertex="1">
          <mxGeometry x="442" width="63" height="71" as="geometry">
            <mxRectangle width="63" height="71" as="alternateBounds" />
          </mxGeometry>
        </mxCell>
        <mxCell id="MdItLQ0MTu5GTJjjdZmf-65" value="배송지" style="shape=partialRectangle;html=1;whiteSpace=wrap;connectable=0;overflow=hidden;top=0;left=0;bottom=0;right=0;pointerEvents=1;fillColor=none;" parent="MdItLQ0MTu5GTJjjdZmf-56" vertex="1">
          <mxGeometry x="505" width="63" height="71" as="geometry">
            <mxRectangle width="63" height="71" as="alternateBounds" />
          </mxGeometry>
        </mxCell>
        <mxCell id="MdItLQ0MTu5GTJjjdZmf-66" value="결제수단" style="shape=partialRectangle;html=1;whiteSpace=wrap;connectable=0;overflow=hidden;top=0;left=0;bottom=0;right=0;pointerEvents=1;fillColor=none;" parent="MdItLQ0MTu5GTJjjdZmf-56" vertex="1">
          <mxGeometry x="568" width="63" height="71" as="geometry">
            <mxRectangle width="63" height="71" as="alternateBounds" />
          </mxGeometry>
        </mxCell>
        <mxCell id="MdItLQ0MTu5GTJjjdZmf-87" value="" style="shape=table;startSize=0;container=1;collapsible=0;childLayout=tableLayout;" parent="MdItLQ0MTu5GTJjjdZmf-1" vertex="1">
          <mxGeometry x="-45" y="-224" width="463" height="71" as="geometry" />
        </mxCell>
        <mxCell id="MdItLQ0MTu5GTJjjdZmf-88" value="" style="shape=tableRow;horizontal=0;startSize=0;swimlaneHead=0;swimlaneBody=0;strokeColor=inherit;top=0;left=0;bottom=0;right=0;collapsible=0;dropTarget=0;fillColor=none;points=[[0,0.5],[1,0.5]];portConstraint=eastwest;" parent="MdItLQ0MTu5GTJjjdZmf-87" vertex="1">
          <mxGeometry width="463" height="71" as="geometry" />
        </mxCell>
        <mxCell id="MdItLQ0MTu5GTJjjdZmf-89" value="판매자&lt;div&gt;정보&lt;/div&gt;" style="shape=partialRectangle;html=1;whiteSpace=wrap;connectable=0;strokeColor=#82b366;overflow=hidden;fillColor=#d5e8d4;top=0;left=0;bottom=0;right=0;pointerEvents=1;" parent="MdItLQ0MTu5GTJjjdZmf-88" vertex="1">
          <mxGeometry width="67" height="71" as="geometry">
            <mxRectangle width="67" height="71" as="alternateBounds" />
          </mxGeometry>
        </mxCell>
        <mxCell id="MdItLQ0MTu5GTJjjdZmf-90" value="판매자&lt;div&gt;번호&lt;/div&gt;" style="shape=partialRectangle;html=1;whiteSpace=wrap;connectable=0;strokeColor=#6c8ebf;overflow=hidden;fillColor=#dae8fc;top=0;left=0;bottom=0;right=0;pointerEvents=1;" parent="MdItLQ0MTu5GTJjjdZmf-88" vertex="1">
          <mxGeometry x="67" width="66" height="71" as="geometry">
            <mxRectangle width="66" height="71" as="alternateBounds" />
          </mxGeometry>
        </mxCell>
        <mxCell id="MdItLQ0MTu5GTJjjdZmf-91" value="회원번호" style="shape=partialRectangle;html=1;whiteSpace=wrap;connectable=0;strokeColor=#d79b00;overflow=hidden;fillColor=#ffe6cc;top=0;left=0;bottom=0;right=0;pointerEvents=1;" parent="MdItLQ0MTu5GTJjjdZmf-88" vertex="1">
          <mxGeometry x="133" width="65" height="71" as="geometry">
            <mxRectangle width="65" height="71" as="alternateBounds" />
          </mxGeometry>
        </mxCell>
        <mxCell id="MdItLQ0MTu5GTJjjdZmf-92" value="판매자&lt;div&gt;이름&lt;/div&gt;" style="shape=partialRectangle;html=1;whiteSpace=wrap;connectable=0;strokeColor=#b85450;overflow=hidden;fillColor=#f8cecc;top=0;left=0;bottom=0;right=0;pointerEvents=1;" parent="MdItLQ0MTu5GTJjjdZmf-88" vertex="1">
          <mxGeometry x="198" width="66" height="71" as="geometry">
            <mxRectangle width="66" height="71" as="alternateBounds" />
          </mxGeometry>
        </mxCell>
        <mxCell id="MdItLQ0MTu5GTJjjdZmf-93" value="계좌번호" style="shape=partialRectangle;html=1;whiteSpace=wrap;connectable=0;strokeColor=inherit;overflow=hidden;fillColor=none;top=0;left=0;bottom=0;right=0;pointerEvents=1;" parent="MdItLQ0MTu5GTJjjdZmf-88" vertex="1">
          <mxGeometry x="264" width="67" height="71" as="geometry">
            <mxRectangle width="67" height="71" as="alternateBounds" />
          </mxGeometry>
        </mxCell>
        <mxCell id="MdItLQ0MTu5GTJjjdZmf-94" value="사업자&lt;div&gt;등록증&lt;/div&gt;" style="shape=partialRectangle;html=1;whiteSpace=wrap;connectable=0;strokeColor=inherit;overflow=hidden;fillColor=none;top=0;left=0;bottom=0;right=0;pointerEvents=1;" parent="MdItLQ0MTu5GTJjjdZmf-88" vertex="1">
          <mxGeometry x="331" width="66" height="71" as="geometry">
            <mxRectangle width="66" height="71" as="alternateBounds" />
          </mxGeometry>
        </mxCell>
        <mxCell id="MdItLQ0MTu5GTJjjdZmf-95" value="팩스" style="shape=partialRectangle;html=1;whiteSpace=wrap;connectable=0;strokeColor=inherit;overflow=hidden;fillColor=none;top=0;left=0;bottom=0;right=0;pointerEvents=1;" parent="MdItLQ0MTu5GTJjjdZmf-88" vertex="1">
          <mxGeometry x="397" width="66" height="71" as="geometry">
            <mxRectangle width="66" height="71" as="alternateBounds" />
          </mxGeometry>
        </mxCell>
        <mxCell id="MdItLQ0MTu5GTJjjdZmf-99" value="" style="shape=table;startSize=0;container=1;collapsible=0;childLayout=tableLayout;" parent="MdItLQ0MTu5GTJjjdZmf-1" vertex="1">
          <mxGeometry x="-735" y="-414" width="759" height="71" as="geometry" />
        </mxCell>
        <mxCell id="MdItLQ0MTu5GTJjjdZmf-100" value="" style="shape=tableRow;horizontal=0;startSize=0;swimlaneHead=0;swimlaneBody=0;strokeColor=inherit;top=0;left=0;bottom=0;right=0;collapsible=0;dropTarget=0;fillColor=none;points=[[0,0.5],[1,0.5]];portConstraint=eastwest;" parent="MdItLQ0MTu5GTJjjdZmf-99" vertex="1">
          <mxGeometry width="759" height="71" as="geometry" />
        </mxCell>
        <mxCell id="MdItLQ0MTu5GTJjjdZmf-101" value="게시판 글" style="shape=partialRectangle;html=1;whiteSpace=wrap;connectable=0;strokeColor=#82b366;overflow=hidden;fillColor=#d5e8d4;top=0;left=0;bottom=0;right=0;pointerEvents=1;" parent="MdItLQ0MTu5GTJjjdZmf-100" vertex="1">
          <mxGeometry width="63" height="71" as="geometry">
            <mxRectangle width="63" height="71" as="alternateBounds" />
          </mxGeometry>
        </mxCell>
        <mxCell id="MdItLQ0MTu5GTJjjdZmf-102" value="글번호" style="shape=partialRectangle;html=1;whiteSpace=wrap;connectable=0;strokeColor=#6c8ebf;overflow=hidden;fillColor=#dae8fc;top=0;left=0;bottom=0;right=0;pointerEvents=1;" parent="MdItLQ0MTu5GTJjjdZmf-100" vertex="1">
          <mxGeometry x="63" width="64" height="71" as="geometry">
            <mxRectangle width="64" height="71" as="alternateBounds" />
          </mxGeometry>
        </mxCell>
        <mxCell id="re8xZz4pAa4xqLTd9ODO-0" value="상품번호" style="shape=partialRectangle;html=1;whiteSpace=wrap;connectable=0;overflow=hidden;top=0;left=0;bottom=0;right=0;pointerEvents=1;fillColor=none;" parent="MdItLQ0MTu5GTJjjdZmf-100" vertex="1">
          <mxGeometry x="127" width="64" height="71" as="geometry">
            <mxRectangle width="64" height="71" as="alternateBounds" />
          </mxGeometry>
        </mxCell>
        <mxCell id="MdItLQ0MTu5GTJjjdZmf-105" value="닉네임" style="shape=partialRectangle;html=1;whiteSpace=wrap;connectable=0;overflow=hidden;top=0;left=0;bottom=0;right=0;pointerEvents=1;fillColor=none;" parent="MdItLQ0MTu5GTJjjdZmf-100" vertex="1">
          <mxGeometry x="191" width="64" height="71" as="geometry">
            <mxRectangle width="64" height="71" as="alternateBounds" />
          </mxGeometry>
        </mxCell>
        <mxCell id="MdItLQ0MTu5GTJjjdZmf-106" value="제목" style="shape=partialRectangle;html=1;whiteSpace=wrap;connectable=0;strokeColor=inherit;overflow=hidden;fillColor=none;top=0;left=0;bottom=0;right=0;pointerEvents=1;" parent="MdItLQ0MTu5GTJjjdZmf-100" vertex="1">
          <mxGeometry x="255" width="63" height="71" as="geometry">
            <mxRectangle width="63" height="71" as="alternateBounds" />
          </mxGeometry>
        </mxCell>
        <mxCell id="MdItLQ0MTu5GTJjjdZmf-107" value="내용" style="shape=partialRectangle;html=1;whiteSpace=wrap;connectable=0;strokeColor=inherit;overflow=hidden;fillColor=none;top=0;left=0;bottom=0;right=0;pointerEvents=1;" parent="MdItLQ0MTu5GTJjjdZmf-100" vertex="1">
          <mxGeometry x="318" width="63" height="71" as="geometry">
            <mxRectangle width="63" height="71" as="alternateBounds" />
          </mxGeometry>
        </mxCell>
        <mxCell id="MdItLQ0MTu5GTJjjdZmf-108" value="날짜" style="shape=partialRectangle;html=1;whiteSpace=wrap;connectable=0;overflow=hidden;top=0;left=0;bottom=0;right=0;pointerEvents=1;fillColor=none;" parent="MdItLQ0MTu5GTJjjdZmf-100" vertex="1">
          <mxGeometry x="381" width="63" height="71" as="geometry">
            <mxRectangle width="63" height="71" as="alternateBounds" />
          </mxGeometry>
        </mxCell>
        <mxCell id="re8xZz4pAa4xqLTd9ODO-1" value="조회수" style="shape=partialRectangle;html=1;whiteSpace=wrap;connectable=0;overflow=hidden;top=0;left=0;bottom=0;right=0;pointerEvents=1;fillColor=none;" parent="MdItLQ0MTu5GTJjjdZmf-100" vertex="1">
          <mxGeometry x="444" width="63" height="71" as="geometry">
            <mxRectangle width="63" height="71" as="alternateBounds" />
          </mxGeometry>
        </mxCell>
        <mxCell id="MdItLQ0MTu5GTJjjdZmf-109" value="별점" style="shape=partialRectangle;html=1;whiteSpace=wrap;connectable=0;overflow=hidden;top=0;left=0;bottom=0;right=0;pointerEvents=1;fillColor=none;" parent="MdItLQ0MTu5GTJjjdZmf-100" vertex="1">
          <mxGeometry x="507" width="63" height="71" as="geometry">
            <mxRectangle width="63" height="71" as="alternateBounds" />
          </mxGeometry>
        </mxCell>
        <mxCell id="3LALxGLTyQkvRyAbyKmE-14" value="추천수" style="shape=partialRectangle;html=1;whiteSpace=wrap;connectable=0;overflow=hidden;top=0;left=0;bottom=0;right=0;pointerEvents=1;fillColor=none;" parent="MdItLQ0MTu5GTJjjdZmf-100" vertex="1">
          <mxGeometry x="570" width="63" height="71" as="geometry">
            <mxRectangle width="63" height="71" as="alternateBounds" />
          </mxGeometry>
        </mxCell>
        <mxCell id="re8xZz4pAa4xqLTd9ODO-2" value="카테고리" style="shape=partialRectangle;html=1;whiteSpace=wrap;connectable=0;overflow=hidden;top=0;left=0;bottom=0;right=0;pointerEvents=1;strokeWidth=1;" parent="MdItLQ0MTu5GTJjjdZmf-100" vertex="1">
          <mxGeometry x="633" width="63" height="71" as="geometry">
            <mxRectangle width="63" height="71" as="alternateBounds" />
          </mxGeometry>
        </mxCell>
        <mxCell id="3LALxGLTyQkvRyAbyKmE-58" value="회원번호" style="shape=partialRectangle;html=1;whiteSpace=wrap;connectable=0;overflow=hidden;top=0;left=0;bottom=0;right=0;pointerEvents=1;fillColor=#ffe6cc;strokeColor=#d79b00;" parent="MdItLQ0MTu5GTJjjdZmf-100" vertex="1">
          <mxGeometry x="696" width="63" height="71" as="geometry">
            <mxRectangle width="63" height="71" as="alternateBounds" />
          </mxGeometry>
        </mxCell>
        <mxCell id="W09ROAfbWl7zPPFezjd7-32" value="" style="shape=table;startSize=0;container=1;collapsible=0;childLayout=tableLayout;" parent="MdItLQ0MTu5GTJjjdZmf-1" vertex="1">
          <mxGeometry x="-71" y="98" width="228" height="77" as="geometry" />
        </mxCell>
        <mxCell id="W09ROAfbWl7zPPFezjd7-33" value="" style="shape=tableRow;horizontal=0;startSize=0;swimlaneHead=0;swimlaneBody=0;strokeColor=inherit;top=0;left=0;bottom=0;right=0;collapsible=0;dropTarget=0;fillColor=none;points=[[0,0.5],[1,0.5]];portConstraint=eastwest;" parent="W09ROAfbWl7zPPFezjd7-32" vertex="1">
          <mxGeometry width="228" height="77" as="geometry" />
        </mxCell>
        <mxCell id="W09ROAfbWl7zPPFezjd7-34" value="상품&lt;div&gt;카테고리&lt;/div&gt;" style="shape=partialRectangle;html=1;whiteSpace=wrap;connectable=0;strokeColor=#82b366;overflow=hidden;fillColor=#d5e8d4;top=0;left=0;bottom=0;right=0;pointerEvents=1;" parent="W09ROAfbWl7zPPFezjd7-33" vertex="1">
          <mxGeometry width="76" height="77" as="geometry">
            <mxRectangle width="76" height="77" as="alternateBounds" />
          </mxGeometry>
        </mxCell>
        <mxCell id="W09ROAfbWl7zPPFezjd7-35" value="카테고리&lt;div&gt;번호&lt;/div&gt;" style="shape=partialRectangle;html=1;whiteSpace=wrap;connectable=0;strokeColor=#6c8ebf;overflow=hidden;fillColor=#dae8fc;top=0;left=0;bottom=0;right=0;pointerEvents=1;" parent="W09ROAfbWl7zPPFezjd7-33" vertex="1">
          <mxGeometry x="76" width="76" height="77" as="geometry">
            <mxRectangle width="76" height="77" as="alternateBounds" />
          </mxGeometry>
        </mxCell>
        <mxCell id="W09ROAfbWl7zPPFezjd7-36" value="카테고리&lt;div&gt;&amp;nbsp;이름&lt;/div&gt;" style="shape=partialRectangle;html=1;whiteSpace=wrap;connectable=0;strokeColor=inherit;overflow=hidden;fillColor=none;top=0;left=0;bottom=0;right=0;pointerEvents=1;" parent="W09ROAfbWl7zPPFezjd7-33" vertex="1">
          <mxGeometry x="152" width="76" height="77" as="geometry">
            <mxRectangle width="76" height="77" as="alternateBounds" />
          </mxGeometry>
        </mxCell>
        <mxCell id="yGIFAuins1xlvjHlImV1-1" value="" style="edgeStyle=elbowEdgeStyle;elbow=vertical;endArrow=classic;html=1;curved=0;rounded=0;endSize=8;startSize=8;fontSize=12;entryX=0.5;entryY=0;entryDx=0;entryDy=0;exitX=0.248;exitY=0.002;exitDx=0;exitDy=0;exitPerimeter=0;" edge="1" parent="MdItLQ0MTu5GTJjjdZmf-1" target="W09ROAfbWl7zPPFezjd7-32">
          <mxGeometry width="50" height="50" relative="1" as="geometry">
            <mxPoint x="122" y="59" as="sourcePoint" />
            <mxPoint x="54" y="7" as="targetPoint" />
            <Array as="points">
              <mxPoint x="83" y="78" />
            </Array>
          </mxGeometry>
        </mxCell>
        <mxCell id="yGIFAuins1xlvjHlImV1-2" value="" style="edgeStyle=elbowEdgeStyle;elbow=vertical;endArrow=classic;html=1;curved=0;rounded=0;endSize=8;startSize=8;fontSize=12;entryX=0.118;entryY=1.003;entryDx=0;entryDy=0;entryPerimeter=0;" edge="1" parent="MdItLQ0MTu5GTJjjdZmf-1" target="MdItLQ0MTu5GTJjjdZmf-5">
          <mxGeometry width="50" height="50" relative="1" as="geometry">
            <mxPoint x="-621" y="98" as="sourcePoint" />
            <mxPoint x="-620" y="59" as="targetPoint" />
            <Array as="points">
              <mxPoint x="-617" y="83" />
            </Array>
          </mxGeometry>
        </mxCell>
        <mxCell id="yGIFAuins1xlvjHlImV1-4" value="" style="edgeStyle=elbowEdgeStyle;elbow=vertical;endArrow=classic;html=1;curved=0;rounded=0;endSize=8;startSize=8;fontSize=12;entryX=0.114;entryY=-0.001;entryDx=0;entryDy=0;entryPerimeter=0;" edge="1" parent="MdItLQ0MTu5GTJjjdZmf-1" target="MdItLQ0MTu5GTJjjdZmf-5">
          <mxGeometry width="50" height="50" relative="1" as="geometry">
            <mxPoint x="-503" y="-51" as="sourcePoint" />
            <mxPoint x="-390.328" y="-89.92900000000009" as="targetPoint" />
            <Array as="points">
              <mxPoint x="-564" y="-35" />
            </Array>
          </mxGeometry>
        </mxCell>
        <mxCell id="yGIFAuins1xlvjHlImV1-6" value="" style="endArrow=classic;html=1;rounded=0;exitX=0.887;exitY=-0.005;exitDx=0;exitDy=0;exitPerimeter=0;entryX=0.214;entryY=1.005;entryDx=0;entryDy=0;entryPerimeter=0;" edge="1" parent="MdItLQ0MTu5GTJjjdZmf-1" source="MdItLQ0MTu5GTJjjdZmf-5" target="MdItLQ0MTu5GTJjjdZmf-87">
          <mxGeometry width="50" height="50" relative="1" as="geometry">
            <mxPoint x="8" y="-103" as="sourcePoint" />
            <mxPoint x="55" y="-144" as="targetPoint" />
          </mxGeometry>
        </mxCell>
        <mxCell id="yGIFAuins1xlvjHlImV1-7" value="" style="edgeStyle=elbowEdgeStyle;elbow=vertical;endArrow=classic;html=1;curved=0;rounded=0;endSize=8;startSize=8;fontSize=12;exitX=0.972;exitY=1.007;exitDx=0;exitDy=0;exitPerimeter=0;entryX=0.113;entryY=1.004;entryDx=0;entryDy=0;entryPerimeter=0;" edge="1" parent="MdItLQ0MTu5GTJjjdZmf-1" source="MdItLQ0MTu5GTJjjdZmf-99">
          <mxGeometry width="50" height="50" relative="1" as="geometry">
            <mxPoint x="89" y="-272.5" as="sourcePoint" />
            <mxPoint x="-630" y="-317.5" as="targetPoint" />
            <Array as="points">
              <mxPoint x="-312" y="-329" />
              <mxPoint x="242" y="-327.5" />
            </Array>
          </mxGeometry>
        </mxCell>
        <mxCell id="yGIFAuins1xlvjHlImV1-8" value="" style="edgeStyle=elbowEdgeStyle;elbow=vertical;endArrow=classic;html=1;curved=0;rounded=0;endSize=8;startSize=8;fontSize=12;exitX=0.224;exitY=1.004;exitDx=0;exitDy=0;exitPerimeter=0;entryX=0.113;entryY=1.004;entryDx=0;entryDy=0;entryPerimeter=0;" edge="1" parent="MdItLQ0MTu5GTJjjdZmf-1">
          <mxGeometry width="50" height="50" relative="1" as="geometry">
            <mxPoint x="-600.6480000000001" y="-438.716" as="sourcePoint" />
            <mxPoint x="-663" y="-414" as="targetPoint" />
            <Array as="points">
              <mxPoint x="-632" y="-432" />
            </Array>
          </mxGeometry>
        </mxCell>
        <mxCell id="yGIFAuins1xlvjHlImV1-9" value="" style="edgeStyle=elbowEdgeStyle;elbow=vertical;endArrow=classic;html=1;curved=0;rounded=0;endSize=8;startSize=8;fontSize=12;entryX=0.113;entryY=1.004;entryDx=0;entryDy=0;entryPerimeter=0;exitX=0.629;exitY=-0.003;exitDx=0;exitDy=0;exitPerimeter=0;" edge="1" parent="MdItLQ0MTu5GTJjjdZmf-1" source="MdItLQ0MTu5GTJjjdZmf-111">
          <mxGeometry width="50" height="50" relative="1" as="geometry">
            <mxPoint x="307" y="-417" as="sourcePoint" />
            <mxPoint x="-638" y="-414" as="targetPoint" />
            <Array as="points">
              <mxPoint x="-605" y="-426" />
            </Array>
          </mxGeometry>
        </mxCell>
      </root>
    </mxGraphModel>
  </diagram>
</mxfile>
